# xmcd
#
# Track frame offsets:
#	183
#	12360
#	27345
#	40700
#	50885
#	64503
#	76485
#	91415
#	104753
#	123703
#	137253
#	151603
#	161648
#	173308
#	186855
#	198918
#	210940
#	221445
#
# Disc length: 3309 seconds
#
# Revision: 4
# Processed by: cddbd v1.5.2PL0 Copyright (c) Steve Scherf et al.
# Submitted via: audiograbber 1.83.01
#
DISCID=e80ceb12
DTITLE=_Various artists - Gefühle - Die schönsten romantischen Schlager 2
DYEAR=1900
DGENRE=Schlager
TTITLE0=Flippers - Weine nicht kleine Eva
TTITLE1=Alexandra - Erstes Morgenrot
TTITLE2=Roy Black - Ich denk an dich
TTITLE3=Gitte - Weiße Rosen
TTITLE4=Bata Illic - Schließ deine Augen und schau in mein Herz
TTITLE5=Peter Beil - Sommersonnenschein
TTITLE6=Jaqueline Boyer - Mucho amore
TTITLE7=Ricky Shayne - In Chicago
TTITLE8=Karel Gott - Was damals war
TTITLE9=Adamo - Es geht eine Träne auf Reisen
TTITLE10=Manuela - Guantanamera
TTITLE11=Rex Gildo - Dondolo
TTITLE12=Udo Jürgens - Dein letzter Brief
TTITLE13=Mireille Mathieu - Martin
TTITLE14=Peter Alexander - Liebesleid
TTITLE15=Peggy March - Romeo und Julia
TTITLE16=Graham Bonney - Siebenmeilenstiefel
TTITLE17=Christian Anders - Geh nicht vorbei
EXTD=
EXTT0=
EXTT1=
EXTT2=
EXTT3=
EXTT4=
EXTT5=
EXTT6=
EXTT7=
EXTT8=
EXTT9=
EXTT10=
EXTT11=
EXTT12=
EXTT13=
EXTT14=
EXTT15=
EXTT16=
EXTT17=
PLAYORDER=
